<?xml version="1.0" encoding="utf-8"?>
<!-- Generator: Adobe Illustrator 24.0.0, SVG Export Plug-In . SVG Version: 6.00 Build 0)  -->
<svg version="1.1" id="Capa_1" xmlns="http://www.w3.org/2000/svg" xmlns:xlink="http://www.w3.org/1999/xlink" x="0px" y="0px"
	 viewBox="0 0 536.78 301.23" style="enable-background:new 0 0 536.78 301.23;" xml:space="preserve">
<style type="text/css">
	.st0{fill:#6EAADA;}
	.st1{fill:#111112;}
	.st2{fill:#FFFFFF;}
	.st3{fill:none;stroke:#E5E6E9;stroke-width:0;stroke-linecap:round;stroke-linejoin:round;}
	.st4{fill:#F3B627;}
</style>
<g>
	<polygon class="st0" points="109.07,205.03 166.74,205.03 122.33,142.03 162.19,77.46 105.37,77.46 77.25,126.77 77.25,77.46 
		29.51,77.46 29.51,205.03 77.25,205.03 77.25,156.16 78.42,156.16 	"/>
	<rect x="176.4" y="77.46" class="st0" width="44.61" height="127.57"/>
	<g>
		<path class="st0" d="M482.44,205.6h-44.98v-53.92c0-4.55-3.87-8.26-8.62-8.26s-8.62,3.7-8.62,8.26v53.92h-44.98v-53.92
			c0-29.36,24.05-53.24,53.6-53.24c29.56,0,53.6,23.88,53.6,53.24V205.6z"/>
	</g>
	<polygon class="st0" points="316.47,103.03 300.41,149.22 307,166.96 304.71,166.96 299.31,152.41 289.83,126.92 280.95,103.03 
		233.22,103.03 276.59,205.75 266.83,230.88 312.21,230.88 364.77,103.03 	"/>
	<g>
		<path class="st1" d="M66.76,251.15c-0.43,0.79-1.1,1.43-2.01,1.92c-0.91,0.48-2.07,0.73-3.46,0.73h-2.84v6.5h-3.4v-16.94h6.24
			c1.31,0,2.43,0.23,3.35,0.68c0.92,0.45,1.61,1.08,2.07,1.87c0.46,0.79,0.69,1.69,0.69,2.69
			C67.41,249.51,67.19,250.36,66.76,251.15z M63.23,250.41c0.45-0.43,0.68-1.03,0.68-1.81c0-1.65-0.92-2.48-2.77-2.48h-2.69v4.93
			h2.69C62.08,251.05,62.78,250.84,63.23,250.41z"/>
		<path class="st1" d="M84.85,260.3l-3.74-6.6h-1.6v6.6h-3.4v-16.94h6.36c1.31,0,2.43,0.23,3.35,0.69c0.92,0.46,1.61,1.08,2.07,1.87
			c0.46,0.78,0.69,1.66,0.69,2.63c0,1.12-0.32,2.12-0.97,3.02c-0.65,0.9-1.61,1.52-2.89,1.86l4.05,6.87H84.85z M79.52,251.15h2.84
			c0.92,0,1.61-0.22,2.06-0.67c0.45-0.44,0.68-1.06,0.68-1.86c0-0.78-0.23-1.38-0.68-1.81c-0.45-0.43-1.14-0.64-2.06-0.64h-2.84
			V251.15z"/>
		<path class="st1" d="M101.48,259.35c-1.33-0.74-2.38-1.78-3.15-3.09c-0.78-1.32-1.16-2.81-1.16-4.48c0-1.65,0.39-3.13,1.16-4.45
			c0.78-1.32,1.83-2.35,3.15-3.09c1.33-0.74,2.78-1.12,4.37-1.12c1.6,0,3.06,0.37,4.38,1.12c1.32,0.74,2.36,1.78,3.13,3.09
			c0.77,1.32,1.15,2.8,1.15,4.45c0,1.67-0.38,3.16-1.15,4.48c-0.77,1.32-1.82,2.35-3.14,3.09c-1.33,0.74-2.78,1.12-4.37,1.12
			C104.26,260.47,102.81,260.09,101.48,259.35z M108.54,256.74c0.78-0.46,1.38-1.12,1.82-1.98c0.44-0.86,0.66-1.85,0.66-2.98
			c0-1.13-0.22-2.12-0.66-2.97c-0.44-0.85-1.04-1.5-1.82-1.95c-0.78-0.45-1.67-0.68-2.69-0.68c-1.02,0-1.92,0.23-2.71,0.68
			c-0.78,0.45-1.4,1.1-1.83,1.95c-0.44,0.85-0.65,1.84-0.65,2.97c0,1.13,0.22,2.13,0.65,2.98c0.44,0.86,1.05,1.52,1.83,1.98
			c0.78,0.46,1.69,0.69,2.71,0.69C106.87,257.43,107.76,257.2,108.54,256.74z"/>
		<path class="st1" d="M133.96,244.4c1.35,0.7,2.39,1.69,3.13,2.97c0.74,1.29,1.1,2.78,1.1,4.48c0,1.7-0.37,3.18-1.1,4.45
			c-0.74,1.27-1.78,2.25-3.13,2.95c-1.35,0.7-2.92,1.04-4.7,1.04h-5.92v-16.94h5.92C131.04,243.36,132.61,243.71,133.96,244.4z
			 M133.27,255.95c0.97-0.97,1.46-2.34,1.46-4.1s-0.49-3.14-1.46-4.14c-0.97-0.99-2.35-1.49-4.13-1.49h-2.4v11.19h2.4
			C130.92,257.41,132.3,256.92,133.27,255.95z"/>
		<path class="st1" d="M150.4,243.36v10.48c0,1.15,0.3,2.03,0.9,2.63c0.6,0.61,1.44,0.91,2.52,0.91c1.1,0,1.95-0.3,2.55-0.91
			c0.6-0.61,0.9-1.48,0.9-2.63v-10.48h3.42v10.46c0,1.44-0.31,2.66-0.93,3.65c-0.62,0.99-1.46,1.74-2.5,2.24
			c-1.04,0.5-2.2,0.75-3.48,0.75c-1.26,0-2.41-0.25-3.43-0.75c-1.03-0.5-1.84-1.25-2.44-2.24c-0.6-0.99-0.9-2.21-0.9-3.65v-10.46
			H150.4z"/>
		<path class="st1" d="M170.58,247.33c0.75-1.32,1.78-2.35,3.08-3.08c1.3-0.74,2.76-1.1,4.38-1.1c1.89,0,3.55,0.49,4.98,1.46
			c1.42,0.97,2.42,2.31,2.98,4.03h-3.91c-0.39-0.81-0.93-1.42-1.64-1.82c-0.7-0.4-1.52-0.61-2.44-0.61c-0.99,0-1.87,0.23-2.63,0.69
			c-0.77,0.46-1.37,1.11-1.8,1.95c-0.43,0.84-0.64,1.83-0.64,2.96c0,1.12,0.21,2.1,0.64,2.95c0.43,0.85,1.03,1.5,1.8,1.97
			c0.77,0.46,1.65,0.69,2.63,0.69c0.92,0,1.73-0.21,2.44-0.62c0.7-0.41,1.25-1.02,1.64-1.83H186c-0.57,1.73-1.56,3.08-2.97,4.04
			c-1.42,0.96-3.08,1.44-4.99,1.44c-1.62,0-3.08-0.37-4.38-1.1c-1.3-0.74-2.33-1.76-3.08-3.07c-0.75-1.31-1.13-2.8-1.13-4.47
			S169.83,248.64,170.58,247.33z"/>
		<path class="st1" d="M206.75,243.36v2.74h-4.51v14.2h-3.4v-14.2h-4.51v-2.74H206.75z"/>
		<path class="st1" d="M219.03,259.35c-1.33-0.74-2.38-1.78-3.15-3.09s-1.16-2.81-1.16-4.48c0-1.65,0.39-3.13,1.16-4.45
			c0.78-1.32,1.83-2.35,3.15-3.09c1.33-0.74,2.78-1.12,4.37-1.12c1.6,0,3.06,0.37,4.38,1.12c1.32,0.74,2.36,1.78,3.13,3.09
			c0.77,1.32,1.15,2.8,1.15,4.45c0,1.67-0.38,3.16-1.15,4.48c-0.77,1.32-1.82,2.35-3.14,3.09c-1.33,0.74-2.78,1.12-4.37,1.12
			C221.81,260.47,220.36,260.09,219.03,259.35z M226.09,256.74c0.78-0.46,1.38-1.12,1.82-1.98c0.44-0.86,0.66-1.85,0.66-2.98
			c0-1.13-0.22-2.12-0.66-2.97c-0.44-0.85-1.04-1.5-1.82-1.95c-0.78-0.45-1.67-0.68-2.69-0.68c-1.02,0-1.92,0.23-2.71,0.68
			c-0.78,0.45-1.4,1.1-1.83,1.95c-0.44,0.85-0.65,1.84-0.65,2.97c0,1.13,0.22,2.13,0.65,2.98c0.44,0.86,1.05,1.52,1.83,1.98
			c0.78,0.46,1.69,0.69,2.71,0.69C224.42,257.43,225.32,257.2,226.09,256.74z"/>
		<path class="st1" d="M243.55,259.86c-0.95-0.4-1.69-0.99-2.25-1.75c-0.55-0.76-0.83-1.66-0.85-2.69h3.64
			c0.05,0.7,0.29,1.25,0.74,1.65c0.44,0.4,1.06,0.61,1.83,0.61c0.79,0,1.42-0.19,1.87-0.57c0.45-0.38,0.68-0.88,0.68-1.49
			c0-0.5-0.15-0.91-0.46-1.24c-0.31-0.32-0.69-0.58-1.15-0.76c-0.46-0.19-1.1-0.39-1.91-0.62c-1.1-0.32-1.99-0.64-2.68-0.96
			c-0.69-0.32-1.28-0.79-1.77-1.43c-0.49-0.64-0.74-1.49-0.74-2.56c0-1,0.25-1.88,0.75-2.62c0.5-0.74,1.21-1.31,2.11-1.71
			c0.91-0.4,1.94-0.59,3.11-0.59c1.75,0,3.17,0.42,4.26,1.27c1.09,0.85,1.69,2.04,1.81,3.56h-3.74c-0.03-0.58-0.28-1.06-0.74-1.44
			c-0.46-0.38-1.07-0.57-1.83-0.57c-0.66,0-1.19,0.17-1.59,0.51c-0.4,0.34-0.59,0.83-0.59,1.48c0,0.45,0.15,0.83,0.45,1.13
			c0.3,0.3,0.67,0.54,1.12,0.73c0.45,0.19,1.07,0.4,1.88,0.64c1.1,0.32,2,0.65,2.69,0.97c0.7,0.32,1.29,0.81,1.8,1.46
			c0.5,0.65,0.75,1.5,0.75,2.55c0,0.91-0.23,1.75-0.7,2.52c-0.47,0.78-1.16,1.4-2.06,1.86c-0.91,0.46-1.98,0.69-3.23,0.69
			C245.56,260.47,244.5,260.26,243.55,259.86z"/>
		<path class="st1" d="M287.1,260.3l-1.85-1.82c-1.57,1.41-3.49,2.11-5.75,2.11c-1.25,0-2.34-0.21-3.29-0.64
			c-0.95-0.43-1.68-1.04-2.2-1.82c-0.52-0.78-0.78-1.69-0.78-2.73c0-1.12,0.32-2.12,0.95-3.01c0.63-0.89,1.56-1.61,2.79-2.16
			c-0.44-0.53-0.75-1.05-0.95-1.54s-0.29-1.02-0.29-1.59c0-0.78,0.2-1.48,0.61-2.1c0.4-0.62,0.98-1.11,1.74-1.47
			c0.75-0.36,1.63-0.53,2.63-0.53c1.02,0,1.89,0.19,2.62,0.58c0.73,0.39,1.27,0.91,1.63,1.55c0.36,0.65,0.51,1.37,0.46,2.16h-3.3
			c0.02-0.53-0.11-0.94-0.39-1.23c-0.28-0.28-0.65-0.42-1.12-0.42c-0.45,0-0.83,0.13-1.13,0.4c-0.3,0.27-0.45,0.61-0.45,1.03
			c0,0.4,0.12,0.8,0.36,1.2s0.64,0.89,1.19,1.47l4.27,4.22c0.03-0.03,0.06-0.06,0.07-0.1c0.02-0.03,0.03-0.06,0.05-0.1l1.38-2.31
			h3.54l-1.7,2.98c-0.32,0.63-0.67,1.23-1.04,1.8l4.1,4.05H287.1z M283.12,256.37l-4.17-4.13c-1.57,0.7-2.35,1.68-2.35,2.96
			c0,0.73,0.28,1.34,0.83,1.83c0.55,0.49,1.28,0.74,2.18,0.74C280.93,257.77,282.1,257.3,283.12,256.37z"/>
		<path class="st1" d="M314.74,257.6h5.58v2.69h-8.98v-16.94h3.4V257.6z"/>
		<path class="st1" d="M332.19,243.36v16.94h-3.4v-16.94H332.19z"/>
		<path class="st1" d="M360.32,243.36v16.94h-3.4v-11.02l-4.54,11.02h-2.57l-4.56-11.02v11.02h-3.4v-16.94h3.86l5.39,12.6l5.39-12.6
			H360.32z"/>
		<path class="st1" d="M381.69,251.15c-0.43,0.79-1.1,1.43-2.01,1.92c-0.91,0.48-2.07,0.73-3.46,0.73h-2.84v6.5h-3.4v-16.94h6.24
			c1.31,0,2.43,0.23,3.35,0.68c0.92,0.45,1.61,1.08,2.07,1.87c0.46,0.79,0.69,1.69,0.69,2.69
			C382.33,249.51,382.11,250.36,381.69,251.15z M378.16,250.41c0.45-0.43,0.68-1.03,0.68-1.81c0-1.65-0.92-2.48-2.77-2.48h-2.69
			v4.93h2.69C377.01,251.05,377.7,250.84,378.16,250.41z"/>
		<path class="st1" d="M394.44,243.36v16.94h-3.4v-16.94H394.44z"/>
		<path class="st1" d="M407.5,246.1v4.25h5.7v2.69h-5.7v4.49h6.43v2.77h-9.83v-16.96h9.83v2.77H407.5z"/>
		<path class="st1" d="M426.79,257.43h7.62v2.86h-11.55v-2.62l7.57-11.45h-7.57v-2.86h11.55v2.62L426.79,257.43z"/>
		<path class="st1" d="M453.99,257.07h-6.75l-1.12,3.23h-3.57l6.09-16.96h3.96l6.09,16.96h-3.59L453.99,257.07z M453.07,254.35
			l-2.45-7.09l-2.45,7.09H453.07z"/>
	</g>
	<g>
		<g id="XMLID_5_">
			<g>
				<path class="st2" d="M492.34,151.29c8.25,0,14.93,6.69,14.93,14.93c0,8.25-6.68,14.93-14.93,14.93
					c-8.25,0-14.93-6.69-14.93-14.93C477.41,157.97,484.09,151.29,492.34,151.29z M503.84,169.69c0.44-2.78-0.27-6.11-1.51-8.62
					c-1.75-3.54-4.81-5.13-8.42-6.22c-2.07-0.63-3.26,2.18-1.22,2.74c1.7,0.46,3.7,0.89,5.05,2.1c1.39,1.24,2.4,3.23,2.91,5
					c0.57,2.01,0.54,4.2-0.22,6.14c-0.16,0.41-0.36,0.82-0.37,1.25c-0.02,0.65,0.51,1.15,1.11,1.3
					C503.05,173.86,503.64,170.97,503.84,169.69z"/>
				<circle class="st2" cx="492" cy="187.93" r="2.08"/>
				<path class="st2" d="M477.66,184.17c6.41,0,11.61,5.2,11.61,11.61c0,6.42-5.2,11.61-11.61,11.61c-6.42,0-11.61-5.2-11.61-11.61
					C466.05,189.37,471.25,184.17,477.66,184.17z M484.08,197.04c1.62-0.07,1.52-1.85,1.52-3.03c-0.02-1.67-0.6-3.34-1.65-4.65
					c-1.01-1.25-2.44-2.15-4-2.55c-1.14-0.29-3.38-0.15-2.78,1.69c0.23,0.72,0.95,1.02,1.76,1.24c0.8,0.23,1.68,0.4,2.23,0.87
					c0.57,0.5,1.26,1.39,1.47,2.12C482.96,193.96,482.07,197.13,484.08,197.04z"/>
				<path class="st2" d="M481.27,118.64c2.31,0,4.19,1.88,4.19,4.19c0,2.31-1.88,4.19-4.19,4.19c-2.31,0-4.19-1.88-4.19-4.19
					C477.08,120.51,478.96,118.64,481.27,118.64z M483.67,121.73c0-0.82-0.67-1.49-1.49-1.49c-0.82,0-1.49,0.67-1.49,1.49
					s0.66,1.49,1.49,1.49C483,123.21,483.67,122.55,483.67,121.73z"/>
				<circle class="st2" cx="481.29" cy="146.75" r="2.02"/>
				<circle class="st2" cx="479.15" cy="115.38" r="2.29"/>
				<circle class="st2" cx="474.71" cy="134.6" r="3.72"/>
				<path class="st2" d="M474.71,107.17c1.31,0,2.37,1.06,2.37,2.37c0,1.31-1.07,2.37-2.37,2.37s-2.37-1.07-2.37-2.37
					C472.34,108.23,473.4,107.17,474.71,107.17z"/>
				<circle class="st2" cx="472.12" cy="105.04" r="1.23"/>
				<path class="st2" d="M469.41,114.88c2.3,0,4.17,1.86,4.17,4.17c0,2.3-1.86,4.16-4.17,4.16c-2.3,0-4.16-1.86-4.16-4.16
					C465.25,116.75,467.11,114.88,469.41,114.88z M471.51,118.32c0-0.7-0.57-1.28-1.28-1.28c-0.71,0-1.28,0.57-1.28,1.28
					c0,0.71,0.57,1.28,1.28,1.28C470.93,119.6,471.51,119.03,471.51,118.32z"/>
				<path class="st2" d="M462.71,139.59c6.62,0,12,5.37,12,12c0,6.63-5.37,12-12,12c-6.63,0-12-5.37-12-12
					C450.71,144.96,456.08,139.59,462.71,139.59z M471.16,152.79c0.74-0.24,1.28-1.03,1.04-1.82c-0.7-2.21-1.41-4.39-2.95-6.2
					c-1.39-1.64-3.26-2.57-5.35-2.92c-0.76-0.13-1.63,0.2-1.82,1.03c-0.2,0.88,0.28,1.53,1.04,1.8c0.06,0.02,0.12,0.04,0.18,0.05
					c1.9,0.49,3.49,1.39,4.51,3.12c0.67,1.14,0.95,2.37,1.41,3.59C469.54,152.26,470.17,153.11,471.16,152.79z"/>
				<circle class="st2" cx="469.03" cy="207.95" r="2.34"/>
				<circle class="st2" cx="465.79" cy="173.76" r="3.78"/>
				<circle class="st2" cx="465.68" cy="221.39" r="2.18"/>
				<circle class="st2" cx="462.22" cy="131.41" r="2.34"/>
				<path class="st2" d="M457.05,180.53c3.5,0,6.34,2.84,6.34,6.34c0,3.5-2.84,6.34-6.34,6.34c-3.5,0-6.34-2.84-6.34-6.34
					C450.71,183.36,453.55,180.53,457.05,180.53z M461.72,186.6c0-1.52-1.15-2.73-2.17-2.73c-1.02,0-0.57,1.22-0.57,2.73
					c0,1.51-0.53,2.73,0.5,2.73C460.5,189.33,461.72,188.11,461.72,186.6z"/>
				<circle class="st2" cx="458.65" cy="200.29" r="1.76"/>
				<circle class="st2" cx="446.72" cy="173.97" r="4"/>
				<path class="st2" d="M446.79,181.7c0.96,0,1.73,0.77,1.73,1.73c0,0.96-0.78,1.73-1.73,1.73c-0.95,0-1.73-0.78-1.73-1.73
					C445.07,182.47,445.84,181.7,446.79,181.7z"/>
			</g>
			<g>
				<circle class="st3" cx="465.68" cy="221.39" r="2.18"/>
				<circle class="st3" cx="469.03" cy="207.95" r="2.34"/>
				<circle class="st3" cx="458.65" cy="200.29" r="1.76"/>
				<circle class="st3" cx="492" cy="187.93" r="2.08"/>
				<path class="st3" d="M445.07,183.43c0,0.96,0.78,1.73,1.73,1.73c0.96,0,1.73-0.78,1.73-1.73c0-0.96-0.78-1.73-1.73-1.73
					C445.84,181.7,445.07,182.47,445.07,183.43z"/>
				<circle class="st3" cx="465.79" cy="173.76" r="3.78"/>
				<circle class="st3" cx="446.72" cy="173.97" r="4"/>
				<circle class="st3" cx="462.22" cy="131.41" r="2.34"/>
				<circle class="st3" cx="481.29" cy="146.75" r="2.02"/>
				<circle class="st3" cx="479.15" cy="115.38" r="2.29"/>
				<path class="st3" d="M477.08,109.54c0-1.31-1.07-2.37-2.37-2.37s-2.37,1.06-2.37,2.37c0,1.31,1.06,2.37,2.37,2.37
					S477.08,110.85,477.08,109.54z"/>
				<circle class="st3" cx="472.12" cy="105.04" r="1.23"/>
			</g>
		</g>
	</g>
	<g>
		<path class="st4" d="M364.9,155.21c0,0.08,0.01,0.17,0.01,0.25s-0.01,0.17-0.01,0.25c-10.98,1-15.16,5.19-16.16,16.16
			c-0.08,0-0.17,0.01-0.25,0.01c-0.08,0-0.17-0.01-0.25-0.01c-1-10.97-5.19-15.16-16.16-16.16c0-0.08-0.01-0.17-0.01-0.25
			s0.01-0.17,0.01-0.25c10.98-1,15.16-5.19,16.16-16.16c0.08,0,0.17-0.01,0.25-0.01c0.08,0,0.17,0.01,0.25,0.01
			C349.73,150.03,353.92,154.21,364.9,155.21z"/>
		<path class="st4" d="M215.66,56.82c0,0.08,0.01,0.17,0.01,0.25s-0.01,0.17-0.01,0.25c-10.98,1-15.16,5.19-16.16,16.16
			c-0.08,0-0.17,0.01-0.25,0.01c-0.08,0-0.17-0.01-0.25-0.01c-1-10.98-5.19-15.16-16.16-16.16c0-0.08-0.01-0.17-0.01-0.25
			s0.01-0.17,0.01-0.25c10.98-1,15.16-5.19,16.16-16.16c0.08,0,0.17-0.01,0.25-0.01c0.08,0,0.17,0.01,0.25,0.01
			C200.49,51.63,204.68,55.82,215.66,56.82z"/>
	</g>
</g>
</svg>
