<?xml version="1.0" encoding="utf-8"?>
<!-- Generator: Adobe Illustrator 24.0.0, SVG Export Plug-In . SVG Version: 6.00 Build 0)  -->
<svg version="1.1" id="Capa_1" xmlns="http://www.w3.org/2000/svg" xmlns:xlink="http://www.w3.org/1999/xlink" x="0px" y="0px"
	 viewBox="0 0 536.78 301.23" style="enable-background:new 0 0 536.78 301.23;" xml:space="preserve">
<style type="text/css">
	.st0{fill:#6EAADA;}
	.st1{fill:#111112;}
	.st2{fill:#FFFFFF;}
	.st3{fill:none;stroke:#E5E6E9;stroke-width:0;stroke-linecap:round;stroke-linejoin:round;}
	.st4{fill:#F3B627;}
</style>
<g>
	<polygon class="st0" points="109.07,205.03 166.74,205.03 122.33,142.03 162.19,77.46 105.37,77.46 77.25,126.77 77.25,77.46 
		29.51,77.46 29.51,205.03 77.25,205.03 77.25,156.16 78.42,156.16 	"/>
	<rect x="176.4" y="77.46" class="st0" width="44.61" height="127.57"/>
	<g>
		<path class="st0" d="M482.44,205.6h-44.98v-53.92c0-4.55-3.87-8.26-8.62-8.26s-8.62,3.7-8.62,8.26v53.92h-44.98v-53.92
			c0-29.36,24.05-53.24,53.6-53.24c29.56,0,53.6,23.88,53.6,53.24V205.6z"/>
	</g>
	<polygon class="st0" points="316.47,103.03 300.41,149.22 307,166.96 304.71,166.96 299.31,152.41 289.83,126.92 280.95,103.03 
		233.22,103.03 276.59,205.75 266.83,230.88 312.21,230.88 364.77,103.03 	"/>
	<g>
		<g id="XMLID_5_">
			<g>
				<path class="st2" d="M492.34,151.29c8.25,0,14.93,6.69,14.93,14.93c0,8.25-6.68,14.93-14.93,14.93
					c-8.25,0-14.93-6.69-14.93-14.93C477.41,157.97,484.09,151.29,492.34,151.29z M503.84,169.69c0.44-2.78-0.27-6.11-1.51-8.62
					c-1.75-3.54-4.81-5.13-8.42-6.22c-2.07-0.63-3.26,2.18-1.22,2.74c1.7,0.46,3.7,0.89,5.05,2.1c1.39,1.24,2.4,3.23,2.91,5
					c0.57,2.01,0.54,4.2-0.22,6.14c-0.16,0.41-0.36,0.82-0.37,1.25c-0.02,0.65,0.51,1.15,1.11,1.3
					C503.05,173.86,503.64,170.97,503.84,169.69z"/>
				<circle class="st2" cx="492" cy="187.93" r="2.08"/>
				<path class="st2" d="M477.66,184.17c6.41,0,11.61,5.2,11.61,11.61c0,6.42-5.2,11.61-11.61,11.61c-6.42,0-11.61-5.2-11.61-11.61
					C466.05,189.37,471.25,184.17,477.66,184.17z M484.08,197.04c1.62-0.07,1.52-1.85,1.52-3.03c-0.02-1.67-0.6-3.34-1.65-4.65
					c-1.01-1.25-2.44-2.15-4-2.55c-1.14-0.29-3.38-0.15-2.78,1.69c0.23,0.72,0.95,1.02,1.76,1.24c0.8,0.23,1.68,0.4,2.23,0.87
					c0.57,0.5,1.26,1.39,1.47,2.12C482.96,193.96,482.07,197.13,484.08,197.04z"/>
				<path class="st2" d="M481.27,118.64c2.31,0,4.19,1.88,4.19,4.19c0,2.31-1.88,4.19-4.19,4.19c-2.31,0-4.19-1.88-4.19-4.19
					C477.08,120.51,478.96,118.64,481.27,118.64z M483.67,121.73c0-0.82-0.67-1.49-1.49-1.49c-0.82,0-1.49,0.67-1.49,1.49
					s0.66,1.49,1.49,1.49C483,123.21,483.67,122.55,483.67,121.73z"/>
				<circle class="st2" cx="481.29" cy="146.75" r="2.02"/>
				<circle class="st2" cx="479.15" cy="115.38" r="2.29"/>
				<circle class="st2" cx="474.71" cy="134.6" r="3.72"/>
				<path class="st2" d="M474.71,107.17c1.31,0,2.37,1.06,2.37,2.37c0,1.31-1.07,2.37-2.37,2.37s-2.37-1.07-2.37-2.37
					C472.34,108.23,473.4,107.17,474.71,107.17z"/>
				<circle class="st2" cx="472.12" cy="105.04" r="1.23"/>
				<path class="st2" d="M469.41,114.88c2.3,0,4.17,1.86,4.17,4.17c0,2.3-1.86,4.16-4.17,4.16c-2.3,0-4.16-1.86-4.16-4.16
					C465.25,116.75,467.11,114.88,469.41,114.88z M471.51,118.32c0-0.7-0.57-1.28-1.28-1.28c-0.71,0-1.28,0.57-1.28,1.28
					c0,0.71,0.57,1.28,1.28,1.28C470.93,119.6,471.51,119.03,471.51,118.32z"/>
				<path class="st2" d="M462.71,139.59c6.62,0,12,5.37,12,12c0,6.63-5.37,12-12,12c-6.63,0-12-5.37-12-12
					C450.71,144.96,456.08,139.59,462.71,139.59z M471.16,152.79c0.74-0.24,1.28-1.03,1.04-1.82c-0.7-2.21-1.41-4.39-2.95-6.2
					c-1.39-1.64-3.26-2.57-5.35-2.92c-0.76-0.13-1.63,0.2-1.82,1.03c-0.2,0.88,0.28,1.53,1.04,1.8c0.06,0.02,0.12,0.04,0.18,0.05
					c1.9,0.49,3.49,1.39,4.51,3.12c0.67,1.14,0.95,2.37,1.41,3.59C469.54,152.26,470.17,153.11,471.16,152.79z"/>
				<circle class="st2" cx="469.03" cy="207.95" r="2.34"/>
				<circle class="st2" cx="465.79" cy="173.76" r="3.78"/>
				<circle class="st2" cx="465.68" cy="221.39" r="2.18"/>
				<circle class="st2" cx="462.22" cy="131.41" r="2.34"/>
				<path class="st2" d="M457.05,180.53c3.5,0,6.34,2.84,6.34,6.34c0,3.5-2.84,6.34-6.34,6.34c-3.5,0-6.34-2.84-6.34-6.34
					C450.71,183.36,453.55,180.53,457.05,180.53z M461.72,186.6c0-1.52-1.15-2.73-2.17-2.73c-1.02,0-0.57,1.22-0.57,2.73
					c0,1.51-0.53,2.73,0.5,2.73C460.5,189.33,461.72,188.11,461.72,186.6z"/>
				<circle class="st2" cx="458.65" cy="200.29" r="1.76"/>
				<circle class="st2" cx="446.72" cy="173.97" r="4"/>
				<path class="st2" d="M446.79,181.7c0.96,0,1.73,0.77,1.73,1.73c0,0.96-0.78,1.73-1.73,1.73c-0.95,0-1.73-0.78-1.73-1.73
					C445.07,182.47,445.84,181.7,446.79,181.7z"/>
			</g>
			<g>
				<circle class="st3" cx="465.68" cy="221.39" r="2.18"/>
				<circle class="st3" cx="469.03" cy="207.95" r="2.34"/>
				<circle class="st3" cx="458.65" cy="200.29" r="1.76"/>
				<circle class="st3" cx="492" cy="187.93" r="2.08"/>
				<path class="st3" d="M445.07,183.43c0,0.96,0.78,1.73,1.73,1.73c0.96,0,1.73-0.78,1.73-1.73c0-0.96-0.78-1.73-1.73-1.73
					C445.84,181.7,445.07,182.47,445.07,183.43z"/>
				<circle class="st3" cx="465.79" cy="173.76" r="3.78"/>
				<circle class="st3" cx="446.72" cy="173.97" r="4"/>
				<circle class="st3" cx="462.22" cy="131.41" r="2.34"/>
				<circle class="st3" cx="481.29" cy="146.75" r="2.02"/>
				<circle class="st3" cx="479.15" cy="115.38" r="2.29"/>
				<path class="st3" d="M477.08,109.54c0-1.31-1.07-2.37-2.37-2.37s-2.37,1.06-2.37,2.37c0,1.31,1.06,2.37,2.37,2.37
					S477.08,110.85,477.08,109.54z"/>
				<circle class="st3" cx="472.12" cy="105.04" r="1.23"/>
			</g>
		</g>
	</g>
	<g>
		<path class="st4" d="M364.9,155.21c0,0.08,0.01,0.17,0.01,0.25s-0.01,0.17-0.01,0.25c-10.98,1-15.16,5.19-16.16,16.16
			c-0.08,0-0.17,0.01-0.25,0.01c-0.08,0-0.17-0.01-0.25-0.01c-1-10.97-5.19-15.16-16.16-16.16c0-0.08-0.01-0.17-0.01-0.25
			s0.01-0.17,0.01-0.25c10.98-1,15.16-5.19,16.16-16.16c0.08,0,0.17-0.01,0.25-0.01c0.08,0,0.17,0.01,0.25,0.01
			C349.73,150.03,353.92,154.21,364.9,155.21z"/>
		<path class="st4" d="M215.66,56.82c0,0.08,0.01,0.17,0.01,0.25s-0.01,0.17-0.01,0.25c-10.98,1-15.16,5.19-16.16,16.16
			c-0.08,0-0.17,0.01-0.25,0.01c-0.08,0-0.17-0.01-0.25-0.01c-1-10.98-5.19-15.16-16.16-16.16c0-0.08-0.01-0.17-0.01-0.25
			s0.01-0.17,0.01-0.25c10.98-1,15.16-5.19,16.16-16.16c0.08,0,0.17-0.01,0.25-0.01c0.08,0,0.17,0.01,0.25,0.01
			C200.49,51.63,204.68,55.82,215.66,56.82z"/>
	</g>
</g>
</svg>
